<svg width="160" height="30" viewBox="0 0 160 30" fill="none" xmlns="http://www.w3.org/2000/svg">
<path fill-rule="evenodd" clip-rule="evenodd" d="M9.06247 15.0849V11.8418L0.0171313 15.174H0V18.502H0.0171313L9.06247 21.8342V18.5869L4.42416 16.8295L9.06247 15.0806V15.0849Z" fill="#F7DD43"/>
<path fill-rule="evenodd" clip-rule="evenodd" d="M61.4546 21.6727V18.4297L66.0886 16.685L61.4546 14.9404V11.6973L70.4871 15.0295H70.5085V18.3618H70.4871L61.4546 21.677V21.6727ZM57.5744 7.10864L52.2637 24.0074H55.4158L60.7265 7.10864H57.5744Z" fill="#F7DD43"/>
<path fill-rule="evenodd" clip-rule="evenodd" d="M22.3521 11.396C23.2515 12.3723 23.7226 13.6628 23.667 14.9829V22.1822H20.5148V15.6451C20.5533 14.915 20.3178 14.2019 19.8552 13.6331C19.4184 13.1279 18.7717 12.8478 18.0993 12.8775C16.1249 12.8775 15.1356 14.2358 15.1356 16.9483V22.1822H11.9834V10.3645H15.1356V11.43C16.1377 10.4664 17.4954 9.95278 18.8916 10.0122C20.1936 9.95702 21.4527 10.4622 22.3521 11.396V11.396Z" fill="#F7DD43"/>
<path fill-rule="evenodd" clip-rule="evenodd" d="M27.6841 5.28345V22.1822H30.8362V5.28345H27.6841Z" fill="#F7DD43"/>
<path fill-rule="evenodd" clip-rule="evenodd" d="M48.6617 22.1824H46.0321L43.4538 15.2208L40.8498 22.1824H38.2202L33.8003 10.3435H37.1709L39.6549 17.4239L42.2161 10.3435H44.6787L47.2398 17.4452L49.7239 10.3435H53.0944L48.6703 22.1824H48.6617Z" fill="#F7DD43"/>
<path d="M87.6264 29.9533C84.3965 29.9533 81.0033 29.3467 78.3438 27.8859V2.11092C80.9616 0.691324 84.3549 0.043457 87.6264 0.043457C90.8979 0.043457 94.2111 0.650039 96.8257 2.11092V12.0004H90.2411V5.27086C89.4656 4.94692 88.5236 4.82624 87.5847 4.82624C86.6459 4.82624 85.784 4.94692 84.9669 5.27086V24.7259C85.7423 25.0499 86.6427 25.1705 87.5847 25.1705C88.5268 25.1705 89.424 25.0499 90.2411 24.7259V17.9995H96.8257V27.889C94.2495 29.3086 90.8563 29.9152 87.6264 29.9565V29.9533Z" fill="#F7DD43"/>
<path d="M109.175 29.9533C105.698 29.9533 102.347 29.2229 99.6871 27.7239V2.2316C102.305 0.773895 105.66 0.043457 109.175 0.043457C112.69 0.043457 115.961 0.73261 118.579 2.2316V27.7239C116.003 29.2229 112.61 29.912 109.175 29.9533ZM111.998 5.35343C111.222 5.02949 110.28 4.86753 109.136 4.86753C107.992 4.86753 107.092 5.02949 106.313 5.35343V24.6052C107.089 24.9705 108.031 25.1324 109.136 25.1324C110.242 25.1324 111.181 24.9705 111.998 24.6052V5.35343Z" fill="#F7DD43"/>
<path d="M130.07 19.0095H128.311V29.5881H121.646V0.408676H130.07C134.078 0.408676 137.103 1.21851 139.474 2.87946V16.5387C137.145 18.1615 134.075 19.0095 130.07 19.0095ZM132.851 5.43282C132.239 4.98821 131.419 4.78496 130.028 4.78496H128.227V14.6332H130.028C131.377 14.6332 132.194 14.4299 132.851 14.0266V5.43282Z" fill="#F7DD43"/>
<path d="M153.416 29.5881V19.0095H148.51V29.5881H141.887V2.19031C144.3 0.77072 147.693 0.043457 150.964 0.043457C154.236 0.043457 157.588 0.773896 160 2.19031V29.5881H153.416ZM153.416 5.10889C152.72 4.78496 151.862 4.62299 150.961 4.62299C150.061 4.62299 149.202 4.78496 148.507 5.10889V14.3886H153.412V5.10889H153.416Z" fill="#F7DD43"/>
</svg>
